# xmcd
#
# Track frame offsets: 
#        150
#        12494
#        27153
#        43492
#        60824
#        76342
#        97673
#        119151
#        136289
#        146924
#        168150
#        180175
#        192336
#        226529
#        239758
#
# Disc length: 3326 seconds
#
# Revision: 0
# Processed by: cddbd v1.5.2PL0 Copyright (c) Steve Scherf et al.
# Submitted via: ExactAudioCopy v0.99pb5
#
DISCID=c00cfc0f
DTITLE=13th Street Red - Avenue Boogie
DYEAR=2011
DGENRE=Blues
TTITLE0=Love My Baby
TTITLE1=Hot Little Mama
TTITLE2=You're Someone Else's Problem Now
TTITLE3=I Tried
TTITLE4=You Make Me So Happy
TTITLE5=Watch Your Baby
TTITLE6=Free and Easy Mind
TTITLE7=Avenue Boogie
TTITLE8=Make Your Dreams Come True
TTITLE9=Stop It
TTITLE10=Sweet Chiquita
TTITLE11=Rumblin' and Tumblin'
TTITLE12=It Serves Me Right to Suffer
TTITLE13=Rabbit Foot Blues
TTITLE14=Brand New Song
EXTD=
EXTT0=
EXTT1=
EXTT2=
EXTT3=
EXTT4=
EXTT5=
EXTT6=
EXTT7=
EXTT8=
EXTT9=
EXTT10=
EXTT11=
EXTT12=
EXTT13=
EXTT14=
PLAYORDER=
